<svg width="277" height="74" viewBox="0 0 277 74" fill="none" xmlns="http://www.w3.org/2000/svg">
<path d="M131.24 17.34C131.587 17.9371 132.154 18.3748 132.82 18.56C133.15 18.6475 133.495 18.6691 133.833 18.6235C134.172 18.5779 134.498 18.466 134.793 18.2941C135.089 18.1223 135.347 17.894 135.554 17.6222C135.761 17.3504 135.913 17.0404 136 16.71C136.093 16.3763 136.118 16.0272 136.074 15.6836C136.029 15.3399 135.915 15.0088 135.74 14.71L129.85 4.51002C129.749 4.3593 129.61 4.23875 129.446 4.16125C129.282 4.08375 129.1 4.05222 128.92 4.07002C128.24 4.17919 127.59 4.42772 127.01 4.80002C126.398 5.11291 125.859 5.55267 125.43 6.09003C125.328 6.23398 125.266 6.40229 125.25 6.57791C125.235 6.75353 125.265 6.93021 125.34 7.09003L131.24 17.34Z" fill="#FFB54D"/>
<path d="M125.84 24.65C126.445 24.9881 127.159 25.0727 127.827 24.8852C128.494 24.6978 129.06 24.2537 129.4 23.65C129.573 23.3504 129.686 23.0193 129.73 22.6761C129.775 22.3328 129.751 21.984 129.66 21.65C129.573 21.3182 129.421 21.0072 129.211 20.7357C129.001 20.4642 128.739 20.2378 128.44 20.07L118.24 14.17C118.079 14.097 117.902 14.0677 117.727 14.0853C117.551 14.1028 117.383 14.1666 117.24 14.27C116.214 15.1828 115.512 16.404 115.24 17.75C115.219 17.931 115.248 18.1142 115.324 18.2799C115.4 18.4456 115.52 18.5874 115.67 18.69L125.84 24.65Z" fill="#FFB54D"/>
<path d="M144.78 13.72C144.781 14.0618 144.715 14.4005 144.585 14.7165C144.455 15.0326 144.263 15.3197 144.021 15.5614C143.78 15.8031 143.493 15.9946 143.177 16.1248C142.861 16.255 142.522 16.3213 142.18 16.32C141.487 16.3202 140.823 16.0471 140.33 15.56C140.088 15.3186 139.897 15.0317 139.766 14.7159C139.636 14.4001 139.569 14.0616 139.57 13.72V1.92998C139.576 1.74784 139.635 1.57147 139.74 1.42234C139.845 1.2732 139.991 1.15773 140.16 1.08998C140.797 0.84458 141.478 0.732271 142.16 0.759978C142.842 0.732271 143.523 0.84458 144.16 1.08998C144.329 1.15773 144.475 1.2732 144.58 1.42234C144.685 1.57147 144.744 1.74784 144.75 1.92998L144.78 13.72Z" fill="#FFB54D"/>
<path d="M153.12 17.34C152.77 17.9391 152.199 18.3772 151.53 18.56C150.862 18.737 150.15 18.6417 149.552 18.2948C148.954 17.948 148.518 17.378 148.34 16.71C148.249 16.376 148.225 16.0273 148.27 15.684C148.314 15.3407 148.427 15.0097 148.6 14.71L154.49 4.51001C154.591 4.35768 154.733 4.23611 154.898 4.15852C155.064 4.08094 155.248 4.05032 155.43 4.07002C156.775 4.35155 157.997 5.05165 158.92 6.07002C159.022 6.21397 159.084 6.38228 159.1 6.5579C159.115 6.73352 159.085 6.9102 159.01 7.07002L153.12 17.34Z" fill="#FFB54D"/>
<path d="M158.52 24.65C158.22 24.8233 157.889 24.9355 157.546 24.9801C157.203 25.0248 156.854 25.0009 156.52 24.91C156.024 24.7745 155.58 24.4957 155.242 24.1087C154.904 23.7216 154.688 23.2435 154.621 22.7342C154.554 22.2249 154.638 21.7071 154.864 21.2456C155.09 20.7841 155.447 20.3995 155.89 20.14L166.1 14.24C166.259 14.1591 166.437 14.1256 166.615 14.1433C166.792 14.161 166.96 14.2293 167.1 14.34C167.637 14.769 168.077 15.3077 168.39 15.92C168.761 16.4966 169.01 17.1433 169.12 17.82C169.14 18.0019 169.109 18.1858 169.032 18.3515C168.954 18.5173 168.832 18.6586 168.68 18.76L158.52 24.65Z" fill="#FFB54D"/>
<path d="M0.410019 63.36V30.72C0.410019 30.38 0.560015 30.24 0.890015 30.24H21.58C21.92 30.24 22.06 30.38 22.06 30.72V35.33C22.06 35.67 21.92 35.81 21.58 35.81H6.46002V43.39H20.14C20.48 43.39 20.62 43.54 20.62 43.87V48.48C20.62 48.82 20.48 48.96 20.14 48.96H6.46002V58.28H22.3C22.64 58.28 22.78 58.42 22.78 58.75V63.36C22.78 63.7 22.64 63.84 22.3 63.84H0.890015C0.560015 63.84 0.410019 63.7 0.410019 63.36Z" fill="white"/>
<path d="M27.68 63.36V40.23C27.68 39.89 27.82 39.75 28.16 39.75H33C33.33 39.75 33.48 39.89 33.48 40.23V42C34.2334 41.1767 35.143 40.5113 36.1559 40.0427C37.1688 39.574 38.2647 39.3113 39.38 39.27C40.5581 39.1795 41.7386 39.4108 42.7954 39.9392C43.8522 40.4676 44.7456 41.2732 45.38 42.27C46.3458 41.3086 47.4927 40.5484 48.7544 40.0335C50.016 39.5185 51.3673 39.259 52.73 39.27C57.67 39.27 60.07 42.48 60.07 47.71V63.36C60.07 63.7 59.93 63.84 59.59 63.84H54.79C54.46 63.84 54.31 63.7 54.31 63.36V48.53C54.31 45.36 53.26 44.45 51.31 44.45C48.38 44.45 46.8 47.33 46.8 52.66V63.36C46.8 63.7 46.65 63.84 46.32 63.84H41.52C41.18 63.84 41.04 63.7 41.04 63.36V48.77C41.04 45.46 40.04 44.45 37.91 44.45C35.32 44.45 33.5 46.95 33.5 52.66V63.36C33.5 63.7 33.35 63.84 33.02 63.84H28.22C27.82 63.84 27.68 63.7 27.68 63.36Z" fill="white"/>
<path d="M65.89 72.87V40.23C65.89 39.89 66.03 39.75 66.37 39.75H71.17C71.5 39.75 71.65 39.89 71.65 40.23V41.71C73.5874 40.0963 76.039 39.2306 78.56 39.27C85.04 39.27 89.5 44.07 89.5 51.79C89.5 59.51 85.04 64.32 78.56 64.32C76.0446 64.367 73.5947 63.5161 71.65 61.92V72.92C71.6603 72.9853 71.6549 73.0522 71.6344 73.1151C71.6139 73.178 71.5789 73.2352 71.5321 73.282C71.4853 73.3288 71.4281 73.3639 71.3652 73.3844C71.3023 73.4049 71.2354 73.4102 71.17 73.4H66.37C66 73.35 65.89 73.2 65.89 72.87ZM83.45 51.79C83.45 47.67 81.2 44.45 77.45 44.45C73.7 44.45 71.45 47.67 71.45 51.79C71.45 55.91 73.7 59.14 77.45 59.14C81.2 59.14 83.45 55.92 83.45 51.79Z" fill="white"/>
<path d="M92.67 56.3101C92.67 51.0301 97.09 48.2401 102.37 48.2401C104.373 48.3073 106.357 48.6436 108.27 49.2401V48.5701C108.27 46.1701 106.73 44.4901 103.81 44.4901C101.6 44.4901 100.21 45.2601 99.39 46.7501C99.15 47.1301 99.01 47.1801 98.72 47.1801H93.87C93.68 47.1801 93.53 47.0801 93.53 46.8901C93.5261 46.7286 93.5429 46.5673 93.58 46.4101C94.49 42.4701 98.09 39.3101 103.81 39.3101C109.95 39.3101 114.03 42.8601 114.03 48.5701V59.0001C113.915 60.5262 114.231 62.054 114.94 63.4101C115.14 63.7501 114.94 63.8901 114.61 63.8901H108.75C108.41 63.8901 108.27 63.7501 108.27 63.4101V62.0001C106.364 63.6254 103.912 64.4655 101.41 64.3501C96.51 64.3201 92.67 61.2501 92.67 56.3101ZM108.27 54.1001C106.447 53.475 104.537 53.1376 102.61 53.1001C100.21 53.1001 98.24 54.1001 98.24 56.1001C98.24 58.1001 99.77 59.1001 102.46 59.1001C105.39 59.1401 108.27 57.1701 108.27 54.1001V54.1001Z" fill="white"/>
<path d="M121.66 56.26V44.93H117.53C117.2 44.93 117.05 44.79 117.05 44.45V40.23C117.05 39.89 117.2 39.75 117.53 39.75H121.66V32.83C121.65 32.7647 121.655 32.6978 121.676 32.6349C121.696 32.572 121.731 32.5148 121.778 32.468C121.825 32.4212 121.882 32.3861 121.945 32.3656C122.008 32.3451 122.075 32.3398 122.14 32.35H126.94C127.28 32.35 127.42 32.5 127.42 32.83V39.75H134.67C135.01 39.75 135.15 39.89 135.15 40.23V44.45C135.15 44.79 135.01 44.93 134.67 44.93H127.42V55.2C127.42 57.79 128.33 59.14 130.73 59.14C132.137 59.183 133.539 58.9555 134.86 58.47C134.997 58.4143 135.142 58.3806 135.29 58.37C135.53 58.37 135.63 58.56 135.63 58.8V62.74C135.63 63.17 135.63 63.41 135.25 63.56C133.46 64.096 131.598 64.3523 129.73 64.32C125.12 64.32 121.66 61.59 121.66 56.26Z" fill="white"/>
<path d="M139.52 63.36V30.72C139.52 30.38 139.66 30.24 140 30.24H144.8C145.13 30.24 145.28 30.38 145.28 30.72V42.05C147.324 40.191 150.008 39.1949 152.77 39.27C157.95 39.27 161.41 41.81 161.41 48.05V63.36C161.41 63.7 161.26 63.84 160.93 63.84H156.13C155.79 63.84 155.65 63.7 155.65 63.36V49.36C155.65 46.04 154.21 44.46 151.37 44.46C148.16 44.46 145.28 47.2 145.28 52.57V63.37C145.28 63.71 145.13 63.85 144.8 63.85H140C139.66 63.84 139.52 63.7 139.52 63.36Z" fill="white"/>
<path d="M164.81 73.06C164.658 73.0003 164.529 72.8932 164.442 72.7545C164.356 72.6158 164.317 72.4529 164.33 72.29V68.07C164.33 67.73 164.52 67.59 164.72 67.59C165.48 67.59 166.83 68.59 168.56 68.59C171 68.59 172.3 67.06 173.36 63.27L163.71 40.56C163.628 40.4118 163.577 40.2485 163.56 40.08C163.555 40.028 163.562 39.9756 163.58 39.9266C163.598 39.8776 163.627 39.8333 163.664 39.7968C163.702 39.7604 163.747 39.7328 163.796 39.716C163.846 39.6993 163.898 39.6938 163.95 39.7H169.52C169.9 39.7 170 39.84 170.14 40.18L175.9 55.3L180.56 40.18C180.65 39.84 180.75 39.7 181.18 39.7H186.46C186.7 39.7 186.85 39.79 186.85 40.03C186.824 40.2125 186.773 40.3907 186.7 40.56L177.92 66.15C175.81 72.29 172.64 73.78 169.47 73.78C167.884 73.8587 166.298 73.6137 164.81 73.06V73.06Z" fill="white"/>
<path d="M201.15 63.36V30.72C201.15 30.38 201.29 30.24 201.63 30.24H206.72C207.05 30.24 207.2 30.38 207.2 30.72V58.28H223.57C223.9 58.28 224.05 58.42 224.05 58.75V63.36C224.05 63.7 223.9 63.84 223.57 63.84H201.63C201.29 63.84 201.15 63.7 201.15 63.36Z" fill="white"/>
<path d="M225.82 56.3101C225.82 51.0301 230.24 48.2401 235.52 48.2401C237.523 48.3073 239.507 48.6436 241.42 49.2401V48.5701C241.42 46.1701 239.88 44.4901 236.96 44.4901C234.75 44.4901 233.36 45.2601 232.54 46.7501C232.3 47.1301 232.16 47.1801 231.87 47.1801H227C226.81 47.1801 226.66 47.0801 226.66 46.8901C226.656 46.7286 226.673 46.5673 226.71 46.4101C227.62 42.4701 231.22 39.3101 236.94 39.3101C243.08 39.3101 247.16 42.8601 247.16 48.5701V59.0001C247.045 60.5262 247.361 62.054 248.07 63.4101C248.27 63.7501 248.07 63.8901 247.74 63.8901H241.9C241.56 63.8901 241.42 63.7501 241.42 63.4101V62.0001C239.514 63.6254 237.062 64.4655 234.56 64.3501C229.66 64.3201 225.82 61.2501 225.82 56.3101ZM241.42 54.1001C239.597 53.475 237.687 53.1376 235.76 53.1001C233.36 53.1001 231.39 54.1001 231.39 56.1001C231.39 58.1001 232.92 59.1001 235.61 59.1001C238.54 59.1401 241.42 57.1701 241.42 54.1001V54.1001Z" fill="white"/>
<path d="M258.6 61.88V63.36C258.6 63.7 258.46 63.84 258.12 63.84H253.32C252.99 63.84 252.84 63.7 252.84 63.36V30.72C252.84 30.38 252.99 30.24 253.32 30.24H258.12C258.46 30.24 258.6 30.38 258.6 30.72V41.72C260.549 40.1247 263.002 39.2741 265.52 39.32C272 39.32 276.46 44.12 276.46 51.84C276.46 59.56 272 64.37 265.52 64.37C262.99 64.3933 260.535 63.51 258.6 61.88V61.88ZM270.41 51.79C270.41 47.67 268.16 44.45 264.36 44.45C260.56 44.45 258.36 47.67 258.36 51.79C258.36 55.91 260.61 59.14 264.36 59.14C268.11 59.14 270.41 55.92 270.41 51.79V51.79Z" fill="white"/>
</svg>
