<svg width="149" height="26" viewBox="0 0 149 26" fill="none" xmlns="http://www.w3.org/2000/svg">
<path d="M13.75 13.86H15.35C15.3782 13.8602 15.4057 13.8688 15.4289 13.8849C15.4521 13.9009 15.4699 13.9236 15.48 13.95L17.08 18.04L18.63 14C18.6401 13.9736 18.6579 13.9509 18.6811 13.9349C18.7043 13.9188 18.7318 13.9102 18.76 13.91H20.33C20.353 13.9117 20.3753 13.9188 20.3952 13.9305C20.415 13.9423 20.4319 13.9585 20.4445 13.9778C20.4571 13.9972 20.465 14.0192 20.4677 14.0421C20.4704 14.065 20.4678 14.0883 20.46 14.11L16.55 23.11C16.5372 23.1344 16.5187 23.1554 16.4961 23.171C16.4734 23.1867 16.4473 23.1967 16.42 23.2H15C14.9761 23.2006 14.9524 23.1951 14.9312 23.1839C14.9101 23.1728 14.8921 23.1564 14.8791 23.1363C14.8661 23.1163 14.8584 23.0932 14.8568 23.0694C14.8552 23.0455 14.8597 23.0216 14.87 23L16.2 19.87L13.59 14.13C13.5542 14.1088 13.5283 14.0742 13.518 14.0339C13.5077 13.9936 13.5138 13.9508 13.535 13.915C13.5562 13.8792 13.5908 13.8533 13.6311 13.843C13.6714 13.8327 13.7142 13.8388 13.75 13.86Z" fill="white"/>
<path d="M37.43 14.77V14C37.43 13.9629 37.4448 13.9273 37.471 13.901C37.4973 13.8747 37.5329 13.86 37.57 13.86H39C39.0364 13.8624 39.0706 13.8779 39.0964 13.9036C39.1221 13.9294 39.1377 13.9636 39.14 14V20.09C39.1401 20.1281 39.1257 20.1648 39.0997 20.1927C39.0737 20.2205 39.038 20.2375 39 20.24H37.58C37.542 20.2375 37.5064 20.2205 37.4804 20.1927C37.4543 20.1648 37.4399 20.1281 37.44 20.09V19.29C37.215 19.6286 36.9083 19.905 36.5483 20.0937C36.1882 20.2825 35.7865 20.3775 35.38 20.37C34.9441 20.3801 34.5111 20.2982 34.109 20.1295C33.707 19.9609 33.345 19.7093 33.0468 19.3913C32.7486 19.0732 32.5208 18.6959 32.3783 18.2838C32.2359 17.8718 32.1819 17.4343 32.22 17C32.1768 16.573 32.2256 16.1417 32.3633 15.7352C32.501 15.3288 32.7244 14.9566 33.0182 14.6438C33.312 14.331 33.6696 14.0848 34.0667 13.922C34.4637 13.7592 34.8912 13.6835 35.32 13.7C35.7321 13.6938 36.1396 13.7879 36.5072 13.9743C36.8748 14.1608 37.1915 14.4338 37.43 14.77ZM33.93 17C33.8972 17.2501 33.9183 17.5044 33.9918 17.7457C34.0653 17.9871 34.1896 18.2099 34.3562 18.3993C34.5229 18.5887 34.7281 18.7403 34.9582 18.8439C35.1882 18.9475 35.4377 19.0007 35.69 19C35.9331 19.0124 36.176 18.9725 36.4023 18.883C36.6286 18.7934 36.8331 18.6563 37.0019 18.4809C37.1706 18.3055 37.2998 18.0959 37.3805 17.8663C37.4613 17.6367 37.4918 17.3924 37.47 17.15C37.4969 16.8951 37.4694 16.6375 37.3893 16.394C37.3093 16.1506 37.1784 15.927 37.0054 15.7379C36.8324 15.5488 36.6212 15.3987 36.3858 15.2973C36.1505 15.196 35.8963 15.1457 35.64 15.15C35.4036 15.1507 35.1699 15.2001 34.9534 15.2952C34.737 15.3902 34.5425 15.5289 34.382 15.7025C34.2215 15.8761 34.0986 16.0809 34.0208 16.3042C33.943 16.5274 33.9121 16.7643 33.93 17Z" fill="white"/>
<path d="M40.41 20.09V14C40.4125 13.962 40.4294 13.9264 40.4573 13.9003C40.4852 13.8743 40.5219 13.8599 40.56 13.86H42C42.0381 13.8599 42.0748 13.8743 42.1027 13.9003C42.1306 13.9264 42.1475 13.962 42.15 14V14.83C42.3478 14.4779 42.6396 14.1876 42.9927 13.9916C43.3459 13.7956 43.7465 13.7016 44.15 13.72C45.24 13.72 46.46 14.26 46.46 16.72V20.07C46.4601 20.1081 46.4457 20.1448 46.4196 20.1727C46.3936 20.2005 46.358 20.2175 46.32 20.22H44.9C44.862 20.2175 44.8264 20.2005 44.8004 20.1727C44.7744 20.1448 44.7599 20.1081 44.76 20.07V16.76C44.76 16.17 44.61 15.14 43.55 15.14C42.49 15.14 42.13 16.07 42.13 16.93V20.09C42.13 20.1298 42.1142 20.1679 42.0861 20.1961C42.0579 20.2242 42.0198 20.24 41.98 20.24H40.57C40.5495 20.2414 40.5289 20.2385 40.5095 20.2316C40.4902 20.2247 40.4724 20.2138 40.4574 20.1998C40.4424 20.1857 40.4305 20.1687 40.4223 20.1498C40.4141 20.1309 40.41 20.1106 40.41 20.09Z" fill="white"/>
<path d="M47.69 20.09V14C47.69 13.9629 47.7048 13.9273 47.731 13.901C47.7573 13.8748 47.7929 13.86 47.83 13.86H49.24C49.2781 13.8599 49.3148 13.8743 49.3427 13.9003C49.3705 13.9264 49.3875 13.962 49.39 14V14.83C49.5878 14.4779 49.8796 14.1876 50.2327 13.9916C50.5859 13.7956 50.9865 13.7016 51.39 13.72C52.48 13.72 53.7 14.26 53.7 16.72V20.07C53.7001 20.1081 53.6857 20.1448 53.6597 20.1727C53.6337 20.2005 53.598 20.2175 53.56 20.22H52.14C52.102 20.2175 52.0663 20.2005 52.0403 20.1727C52.0143 20.1448 51.9999 20.1081 52 20.07V16.76C52 16.17 51.85 15.14 50.79 15.14C49.73 15.14 49.37 16.07 49.37 16.93V20.09C49.37 20.1298 49.3542 20.1679 49.3261 20.1961C49.2979 20.2242 49.2598 20.24 49.22 20.24H47.81C47.7756 20.233 47.7448 20.2141 47.7228 20.1867C47.7009 20.1593 47.6893 20.1251 47.69 20.09Z" fill="white"/>
<path d="M62.58 13.86H64C64.0381 13.8599 64.0748 13.8743 64.1027 13.9003C64.1305 13.9263 64.1475 13.962 64.15 14V15.26C64.1873 15.0197 64.2726 14.7894 64.4008 14.5828C64.5291 14.3763 64.6976 14.1976 64.8965 14.0576C65.0953 13.9176 65.3202 13.8191 65.5579 13.768C65.7956 13.7169 66.0412 13.7141 66.28 13.76C66.3109 13.7685 66.3382 13.7867 66.358 13.8119C66.3778 13.8371 66.389 13.868 66.39 13.9V15.29C66.3905 15.3112 66.3861 15.3322 66.3773 15.3515C66.3685 15.3708 66.3554 15.3878 66.339 15.4013C66.3227 15.4148 66.3034 15.4244 66.2828 15.4294C66.2622 15.4343 66.2407 15.4346 66.22 15.43C64.77 15.15 64.22 15.93 64.22 17.03V20.09C64.2201 20.1281 64.2057 20.1648 64.1797 20.1927C64.1537 20.2205 64.118 20.2375 64.08 20.24H62.67C62.6302 20.24 62.5921 20.2242 62.5639 20.1961C62.5358 20.1679 62.52 20.1298 62.52 20.09V14C62.5166 13.9734 62.5204 13.9464 62.5309 13.9218C62.5415 13.8972 62.5584 13.8759 62.58 13.86Z" fill="white"/>
<path d="M4.35 15.24L3.35 14.89C2.99 14.76 2.35 14.41 2.35 13.89C2.35 13.37 2.74 12.96 3.53 12.96C3.82939 12.9457 4.12555 13.0272 4.3755 13.1926C4.62545 13.358 4.81617 13.5988 4.92 13.88C4.9269 13.8991 4.93817 13.9163 4.95291 13.9302C4.96765 13.9442 4.98546 13.9545 5.0049 13.9603C5.02434 13.9662 5.04488 13.9674 5.06486 13.9638C5.08485 13.9603 5.10373 13.9521 5.11999 13.94L6.28 13.27C6.29615 13.2626 6.31062 13.2519 6.32249 13.2387C6.33436 13.2254 6.34339 13.2099 6.34901 13.193C6.35464 13.1761 6.35673 13.1583 6.35518 13.1406C6.35363 13.1228 6.34846 13.1056 6.33999 13.09C6.10073 12.5583 5.70622 12.1113 5.20828 11.8079C4.71034 11.5045 4.13226 11.3588 3.55 11.39C1.73 11.39 0.550001 12.47 0.550001 13.88C0.550001 15.29 1.48 16.02 2.74 16.45L3.74 16.81C4.48 17.06 4.82 17.39 4.82 17.81C4.82 18.23 4.52999 18.81 3.36999 18.81C3.0133 18.8426 2.65617 18.7523 2.35786 18.5541C2.05956 18.3558 1.83801 18.0615 1.72999 17.72C1.72262 17.7013 1.7113 17.6844 1.69681 17.6705C1.68231 17.6565 1.66499 17.6459 1.64601 17.6392C1.62703 17.6326 1.60686 17.6301 1.58684 17.632C1.56682 17.6338 1.54743 17.64 1.53 17.65L0.309995 18.35C0.279223 18.367 0.255972 18.3949 0.244855 18.4283C0.233739 18.4616 0.235575 18.4979 0.249998 18.53C0.539709 19.1181 0.997563 19.607 1.56549 19.9346C2.13341 20.2622 2.78583 20.4137 3.44 20.37C5.13 20.37 6.56 19.51 6.56 17.77C6.56 16.03 4.79 15.4 4.35 15.24Z" fill="white"/>
<path d="M13.69 18.57C13.677 18.5567 13.6614 18.5461 13.6442 18.5389C13.6271 18.5317 13.6086 18.528 13.59 18.528C13.5714 18.528 13.5529 18.5317 13.5358 18.5389C13.5186 18.5461 13.503 18.5567 13.49 18.57C13.3652 18.6805 13.2164 18.7604 13.0553 18.8032C12.8942 18.8461 12.7253 18.8507 12.5621 18.8167C12.399 18.7827 12.246 18.711 12.1154 18.6074C11.9848 18.5038 11.8802 18.3712 11.81 18.22L10.9 16.81L13.05 14.13C13.0673 14.1094 13.0783 14.0843 13.0817 14.0576C13.085 14.0309 13.0807 14.0038 13.0691 13.9796C13.0575 13.9553 13.0391 13.9349 13.0163 13.9208C12.9934 13.9067 12.9669 13.8995 12.94 13.9H11.26C11.2366 13.8992 11.2133 13.9042 11.1923 13.9147C11.1714 13.9252 11.1534 13.9408 11.14 13.96L9.28 16.51V11.33C9.28 11.2929 9.26525 11.2573 9.239 11.231C9.21274 11.2048 9.17713 11.19 9.14 11.19H7.72C7.68287 11.19 7.64726 11.2048 7.621 11.231C7.59475 11.2573 7.58 11.2929 7.58 11.33V20.09C7.57992 20.1281 7.59434 20.1648 7.62035 20.1927C7.64635 20.2205 7.68198 20.2375 7.72 20.24H9.14C9.17802 20.2375 9.21365 20.2205 9.23965 20.1927C9.26566 20.1648 9.28008 20.1281 9.28 20.09V17.25C9.28 17.25 10.23 18.75 10.59 19.25C10.7766 19.5459 11.0283 19.7953 11.3259 19.9792C11.6234 20.1632 11.959 20.2769 12.3071 20.3116C12.6552 20.3463 13.0066 20.3011 13.3346 20.1796C13.6626 20.058 13.9586 19.8632 14.2 19.61C14.2172 19.585 14.2264 19.5554 14.2264 19.525C14.2264 19.4947 14.2172 19.465 14.2 19.44L13.69 18.57Z" fill="white"/>
<path d="M23.87 16.55L22.87 16.2C22.53 16.07 22.23 15.89 22.23 15.61C22.23 15.33 22.48 15.03 23 15.03C23.1792 15.0118 23.3597 15.049 23.517 15.1366C23.6744 15.2243 23.8011 15.3581 23.88 15.52C23.8884 15.5378 23.9004 15.5537 23.9153 15.5666C23.9302 15.5795 23.9477 15.5891 23.9666 15.5947C23.9855 15.6004 24.0053 15.602 24.0249 15.5995C24.0444 15.5969 24.0632 15.5903 24.08 15.58L25.08 15.01C25.114 14.991 25.1393 14.9595 25.1505 14.9221C25.1617 14.8848 25.1579 14.8446 25.14 14.81C24.9269 14.4455 24.6142 14.1494 24.2387 13.9563C23.8632 13.7632 23.4405 13.6813 23.02 13.72C21.43 13.72 20.61 14.65 20.61 15.66C20.61 16.67 21.44 17.16 22.2 17.47L23.2 17.88C23.46 17.99 23.78 18.16 23.78 18.46C23.78 18.76 23.43 19.04 22.89 19.04C22.6197 19.0579 22.3503 18.9927 22.118 18.8534C21.8857 18.714 21.7015 18.5069 21.59 18.26C21.5825 18.2401 21.5709 18.222 21.5559 18.207C21.5409 18.1919 21.5229 18.1802 21.503 18.1727C21.4832 18.1651 21.4619 18.1619 21.4407 18.1631C21.4195 18.1644 21.3988 18.1701 21.38 18.18L20.38 18.76C20.3492 18.777 20.326 18.8049 20.3149 18.8383C20.3037 18.8716 20.3056 18.9079 20.32 18.94C20.5555 19.4332 20.9428 19.8381 21.425 20.0954C21.9072 20.3528 22.4592 20.449 23 20.37C24.52 20.37 25.54 19.56 25.54 18.42C25.54 17.28 24.72 16.87 23.87 16.55Z" fill="white"/>
<path d="M29.6 15.25C30.1565 15.2394 30.6999 15.4193 31.14 15.76C31.168 15.7875 31.2057 15.8029 31.245 15.8029C31.2843 15.8029 31.322 15.7875 31.35 15.76L31.94 14.76C31.9559 14.7276 31.9596 14.6906 31.9504 14.6557C31.9412 14.6208 31.9198 14.5904 31.89 14.57C31.2027 14.0641 30.3734 13.7877 29.52 13.78C29.0403 13.7643 28.5622 13.8446 28.114 14.0164C27.6658 14.1881 27.2564 14.4477 26.91 14.78C26.5881 15.0904 26.3332 15.4635 26.1612 15.8764C25.9892 16.2892 25.9037 16.7329 25.91 17.18C25.9032 17.6213 25.9886 18.0592 26.1608 18.4656C26.333 18.872 26.5882 19.2379 26.91 19.54C27.6204 20.1812 28.5538 20.5187 29.51 20.48C30.3637 20.4647 31.1917 20.1853 31.88 19.68C31.9039 19.6541 31.9172 19.6202 31.9172 19.585C31.9172 19.5498 31.9039 19.5159 31.88 19.49L31.3 18.49C31.2907 18.473 31.278 18.4581 31.2627 18.4462C31.2474 18.4344 31.2298 18.4258 31.211 18.4211C31.1922 18.4164 31.1726 18.4157 31.1535 18.4189C31.1344 18.4222 31.1162 18.4293 31.1 18.44C30.6495 18.7682 30.1073 18.9466 29.55 18.95C29.303 18.9685 29.0549 18.9357 28.8211 18.8539C28.5873 18.772 28.373 18.6428 28.1914 18.4744C28.0099 18.3059 27.8651 18.1017 27.7661 17.8747C27.667 17.6477 27.6159 17.4027 27.6159 17.155C27.6159 16.9073 27.667 16.6623 27.7661 16.4353C27.8651 16.2083 28.0099 16.0042 28.1914 15.8357C28.373 15.6672 28.5873 15.538 28.8211 15.4561C29.0549 15.3743 29.303 15.3416 29.55 15.36L29.6 15.25Z" fill="white"/>
<path d="M58.37 19C57.8333 19.0259 57.3038 18.8671 56.87 18.55C56.7024 18.4406 56.5633 18.2928 56.4641 18.1189C56.365 17.945 56.3087 17.75 56.3 17.55H61.37C61.408 17.5475 61.4437 17.5306 61.4697 17.5027C61.4957 17.4748 61.5101 17.4381 61.51 17.4C61.5379 16.9069 61.4634 16.4134 61.2914 15.9504C61.1193 15.4875 60.8532 15.0652 60.51 14.71C59.8619 14.0914 58.9958 13.7536 58.1 13.77C57.6363 13.7626 57.1758 13.8472 56.7449 14.0188C56.3141 14.1905 55.9216 14.4458 55.59 14.77C55.2774 15.0805 55.0292 15.4497 54.8599 15.8564C54.6906 16.2632 54.6035 16.6994 54.6035 17.14C54.6035 17.5806 54.6906 18.0168 54.8599 18.4236C55.0292 18.8303 55.2774 19.1996 55.59 19.51C55.95 19.8366 56.3717 20.088 56.8302 20.2494C57.2887 20.4108 57.7748 20.479 58.26 20.45C58.8103 20.4702 59.3583 20.3686 59.8647 20.1526C60.3712 19.9365 60.8238 19.6112 61.19 19.2C61.2065 19.1879 61.22 19.1721 61.2292 19.1539C61.2385 19.1357 61.2433 19.1155 61.2433 19.095C61.2433 19.0745 61.2385 19.0544 61.2292 19.0361C61.22 19.0179 61.2065 19.0021 61.19 18.99L60.19 18.4C60.1665 18.3837 60.1386 18.3749 60.11 18.3749C60.0814 18.3749 60.0535 18.3837 60.03 18.4C59.5719 18.8019 58.9791 19.0161 58.37 19ZM58.1 15.13C58.4992 15.1085 58.892 15.2371 59.2011 15.4907C59.5102 15.7442 59.7131 16.1043 59.77 16.5H56.36C56.4238 16.0912 56.6371 15.7206 56.9586 15.4601C57.2801 15.1996 57.6868 15.0677 58.1 15.09V15.13Z" fill="white"/>
<path d="M73.4 6.32001H72.69V25.71H73.4V6.32001Z" fill="white"/>
<path d="M80.18 19.88L83.18 11.62C83.1914 11.5822 83.2156 11.5496 83.2484 11.5277C83.2813 11.5058 83.3207 11.496 83.36 11.5H84.68C84.72 11.4987 84.7596 11.5094 84.7934 11.5308C84.8273 11.5522 84.854 11.5833 84.87 11.62L87.87 19.88C87.92 20.01 87.87 20.07 87.75 20.07H86.41C86.31 20.07 86.29 20.07 86.27 19.95L85.53 17.81H82.53L81.78 20C81.78 20.09 81.78 20.12 81.63 20.12H80.3C80.18 20.07 80.13 20 80.18 19.88ZM85.06 16.39L84.06 13.39L83.06 16.39H85.06Z" fill="white"/>
<path d="M88.07 17C88.053 16.5744 88.1245 16.1498 88.2799 15.7533C88.4354 15.3567 88.6714 14.9966 88.9731 14.6959C89.2747 14.3951 89.6355 14.1602 90.0326 14.006C90.4297 13.8518 90.8544 13.7817 91.28 13.8C91.9554 13.755 92.6237 13.9607 93.157 14.3776C93.6902 14.7946 94.0509 15.3937 94.17 16.06C94.17 16.15 94.17 16.19 94.08 16.19H92.88C92.8431 16.1962 92.8051 16.1884 92.7737 16.168C92.7422 16.1477 92.7195 16.1163 92.71 16.08C92.6038 15.7839 92.4036 15.5308 92.1399 15.3592C91.8763 15.1877 91.5637 15.1072 91.25 15.13C91.0138 15.1277 90.78 15.1764 90.5644 15.2728C90.3488 15.3692 90.1565 15.511 90.0008 15.6886C89.8451 15.8661 89.7295 16.0753 89.6621 16.3016C89.5946 16.5279 89.5769 16.7662 89.61 17C89.5769 17.2338 89.5946 17.4721 89.6621 17.6984C89.7295 17.9248 89.8451 18.1339 90.0008 18.3114C90.1565 18.489 90.3488 18.6308 90.5644 18.7272C90.78 18.8236 91.0138 18.8723 91.25 18.87C91.5637 18.8928 91.8763 18.8123 92.1399 18.6408C92.4036 18.4692 92.6038 18.2161 92.71 17.92C92.7195 17.8838 92.7422 17.8524 92.7737 17.832C92.8051 17.8116 92.8431 17.8038 92.88 17.81H94.08C94.16 17.81 94.18 17.81 94.17 17.94C94.0529 18.6065 93.6923 19.2058 93.1583 19.6216C92.6243 20.0373 91.9549 20.2399 91.28 20.19C90.8549 20.2098 90.4304 20.1409 90.0333 19.9879C89.6362 19.8348 89.2754 19.6009 88.9735 19.3009C88.6717 19.0009 88.4355 18.6415 88.2799 18.2454C88.1244 17.8493 88.0529 17.4252 88.07 17Z" fill="white"/>
<path d="M94.72 17C94.7045 16.5748 94.777 16.1509 94.933 15.755C95.089 15.3591 95.325 14.9997 95.6264 14.6992C95.9278 14.3988 96.2879 14.1639 96.6843 14.0091C97.0807 13.8544 97.5048 13.7832 97.93 13.8C98.6054 13.755 99.2737 13.9607 99.8069 14.3776C100.34 14.7946 100.701 15.3937 100.82 16.06C100.82 16.15 100.82 16.19 100.74 16.19H99.54C99.45 16.19 99.4 16.19 99.37 16.08C99.2624 15.7849 99.0618 15.5327 98.7985 15.3613C98.5352 15.19 98.2234 15.1088 97.91 15.13C96.91 15.13 96.27 15.8 96.27 17C96.27 18.2 96.94 18.87 97.91 18.87C98.2234 18.8912 98.5352 18.81 98.7985 18.6387C99.0618 18.4673 99.2624 18.2151 99.37 17.92C99.37 17.82 99.45 17.81 99.54 17.81H100.74C100.81 17.81 100.83 17.81 100.82 17.94C100.703 18.6065 100.342 19.2058 99.8083 19.6216C99.2743 20.0373 98.6049 20.2399 97.93 20.19C97.5053 20.2082 97.0814 20.1384 96.6851 19.9848C96.2887 19.8312 95.9284 19.5972 95.6269 19.2975C95.3253 18.9979 95.0891 18.6391 94.933 18.2437C94.777 17.8483 94.7044 17.4248 94.72 17Z" fill="white"/>
<path d="M101.38 17C101.366 16.57 101.44 16.1417 101.598 15.7412C101.755 15.3407 101.992 14.9764 102.294 14.6705C102.597 14.3645 102.958 14.1234 103.357 13.9617C103.756 13.8 104.183 13.7212 104.613 13.73C105.044 13.7389 105.467 13.8352 105.859 14.0131C106.251 14.191 106.602 14.4468 106.892 14.7649C107.182 15.083 107.404 15.4567 107.544 15.8633C107.685 16.2699 107.741 16.7009 107.71 17.13V17.34C107.71 17.43 107.71 17.46 107.59 17.46H102.92C102.981 17.7966 103.142 18.1073 103.381 18.3522C103.62 18.5971 103.926 18.7652 104.261 18.835C104.596 18.9048 104.944 18.8731 105.261 18.744C105.578 18.6148 105.849 18.3941 106.04 18.11C106.1 18.01 106.13 18 106.21 18H107.46C107.472 17.9984 107.485 17.9996 107.496 18.0035C107.508 18.0074 107.519 18.014 107.527 18.0227C107.536 18.0314 107.543 18.042 107.547 18.0537C107.55 18.0654 107.552 18.0778 107.55 18.09C107.559 18.1295 107.559 18.1705 107.55 18.21C107.346 18.8311 106.939 19.3657 106.396 19.7283C105.852 20.091 105.202 20.2606 104.55 20.21C104.126 20.2258 103.703 20.1532 103.309 19.997C102.915 19.8407 102.557 19.6041 102.259 19.3023C101.961 19.0004 101.729 18.6399 101.577 18.2435C101.426 17.8472 101.359 17.4237 101.38 17ZM106.14 16.24C106.04 15.9 105.827 15.6044 105.536 15.4024C105.245 15.2004 104.893 15.1043 104.54 15.13C104.2 15.131 103.868 15.2386 103.592 15.4377C103.316 15.6368 103.109 15.9173 103 16.24H106.14Z" fill="white"/>
<path d="M108.29 18C108.29 17.92 108.29 17.87 108.41 17.87H109.65C109.73 17.87 109.76 17.87 109.77 18C109.839 18.2712 110.006 18.5071 110.238 18.6623C110.471 18.8175 110.753 18.8808 111.03 18.84C111.63 18.84 112.12 18.63 112.12 18.24C112.12 17.85 111.73 17.65 110.58 17.46C109.1 17.2 108.44 16.61 108.44 15.68C108.44 14.3 109.71 13.77 110.87 13.77C112.37 13.77 113.35 14.58 113.44 15.66C113.442 15.6762 113.44 15.6924 113.434 15.7077C113.429 15.723 113.42 15.7368 113.408 15.7483C113.397 15.7598 113.383 15.7686 113.368 15.774C113.352 15.7795 113.336 15.7816 113.32 15.78H112.09C112.051 15.7822 112.012 15.7717 111.98 15.7501C111.947 15.7284 111.923 15.6968 111.91 15.66C111.815 15.457 111.659 15.2889 111.463 15.1795C111.268 15.07 111.043 15.0247 110.82 15.05C110.33 15.05 109.91 15.23 109.91 15.65C109.91 16.07 110.16 16.2 111.4 16.41C112.64 16.62 113.59 17.08 113.59 18.22C113.59 19.36 112.53 20.16 110.98 20.16C110.661 20.2003 110.336 20.1759 110.027 20.0883C109.717 20.0007 109.428 19.8518 109.177 19.6502C108.926 19.4487 108.718 19.1988 108.566 18.9153C108.413 18.6318 108.32 18.3205 108.29 18Z" fill="white"/>
<path d="M114.22 18C114.22 17.92 114.22 17.87 114.34 17.87H115.58C115.67 17.87 115.69 17.87 115.7 18C115.769 18.2711 115.936 18.5071 116.168 18.6623C116.401 18.8175 116.683 18.8808 116.96 18.84C117.56 18.84 118.05 18.63 118.05 18.24C118.05 17.85 117.66 17.65 116.51 17.46C115.03 17.2 114.37 16.61 114.37 15.68C114.37 14.3 115.64 13.77 116.81 13.77C117.4 13.6916 117.997 13.8446 118.476 14.197C118.955 14.5494 119.279 15.0738 119.38 15.66C119.382 15.6771 119.38 15.6944 119.374 15.7105C119.368 15.7266 119.358 15.7411 119.345 15.7528C119.333 15.7645 119.317 15.773 119.301 15.7777C119.284 15.7825 119.267 15.7832 119.25 15.78H118C117.962 15.7836 117.924 15.7734 117.893 15.7514C117.862 15.7294 117.839 15.697 117.83 15.66C117.734 15.4579 117.577 15.2907 117.382 15.1814C117.187 15.0722 116.962 15.0262 116.74 15.05C116.25 15.05 115.82 15.23 115.82 15.65C115.82 16.07 116.08 16.2 117.31 16.41C118.54 16.62 119.5 17.08 119.5 18.22C119.5 19.36 118.44 20.16 116.9 20.16C116.582 20.1974 116.259 20.171 115.951 20.0822C115.643 19.9934 115.356 19.844 115.106 19.6429C114.857 19.4418 114.65 19.1928 114.498 18.9107C114.345 18.6286 114.251 18.319 114.22 18Z" fill="white"/>
<path d="M120.41 13V11.6C120.41 11.52 120.41 11.48 120.53 11.48H121.93C121.946 11.4784 121.962 11.4805 121.978 11.486C121.993 11.4915 122.007 11.5002 122.018 11.5117C122.03 11.5232 122.039 11.537 122.044 11.5523C122.05 11.5676 122.052 11.5839 122.05 11.6V13C122.052 13.0161 122.05 13.0324 122.044 13.0477C122.039 13.0629 122.03 13.0768 122.018 13.0883C122.007 13.0997 121.993 13.1085 121.978 13.114C121.962 13.1195 121.946 13.1215 121.93 13.12H120.53C120.44 13.14 120.41 13.1 120.41 13ZM120.49 19.93V14.03C120.49 13.94 120.49 13.91 120.62 13.91H121.84C121.93 13.91 121.96 13.91 121.96 14.03V20C121.96 20.09 121.96 20.12 121.84 20.12H120.62C120.53 20.07 120.49 20 120.49 20V19.93Z" fill="white"/>
<path d="M124.71 19.57V20C124.71 20.09 124.71 20.12 124.59 20.12H123.37C123.28 20.12 123.24 20.12 123.24 20V11.62C123.24 11.54 123.24 11.5 123.37 11.5H124.59C124.68 11.5 124.71 11.5 124.71 11.62V14.42C125.207 14.0093 125.835 13.7894 126.48 13.8C128.13 13.8 129.27 15.03 129.27 17C129.27 18.97 128.13 20.19 126.48 20.19C125.835 20.2015 125.207 19.9815 124.71 19.57ZM127.71 17C127.71 16 127.14 15.13 126.17 15.13C125.2 15.13 124.63 15.95 124.63 17C124.63 18.05 125.2 18.87 126.17 18.87C127.14 18.87 127.72 18.05 127.72 17H127.71Z" fill="white"/>
<path d="M130.15 13V11.6C130.15 11.52 130.15 11.48 130.27 11.48H131.67C131.686 11.4784 131.702 11.4805 131.718 11.486C131.733 11.4915 131.747 11.5002 131.758 11.5117C131.77 11.5232 131.779 11.537 131.784 11.5523C131.79 11.5676 131.792 11.5839 131.79 11.6V13C131.792 13.0161 131.79 13.0324 131.784 13.0477C131.779 13.0629 131.77 13.0768 131.758 13.0883C131.747 13.0997 131.733 13.1085 131.718 13.114C131.702 13.1195 131.686 13.1215 131.67 13.12H130.27C130.18 13.14 130.15 13.1 130.15 13ZM130.23 19.93V14.03C130.23 13.94 130.23 13.91 130.36 13.91H131.58C131.67 13.91 131.7 13.91 131.7 14.03V20C131.7 20.09 131.7 20.12 131.58 20.12H130.36C130.27 20.07 130.23 20 130.23 20V19.93Z" fill="white"/>
<path d="M133 20V11.62C132.998 11.6039 133.001 11.5876 133.006 11.5723C133.011 11.5571 133.02 11.5432 133.032 11.5317C133.043 11.5203 133.057 11.5115 133.072 11.506C133.088 11.5005 133.104 11.4985 133.12 11.5H134.35C134.366 11.4985 134.382 11.5005 134.398 11.506C134.413 11.5115 134.427 11.5203 134.438 11.5317C134.45 11.5432 134.459 11.5571 134.464 11.5723C134.47 11.5876 134.472 11.6039 134.47 11.62V20C134.47 20.09 134.47 20.12 134.35 20.12H133.12C133 20.07 133 20 133 20Z" fill="white"/>
<path d="M135.62 13V11.6C135.62 11.52 135.62 11.48 135.75 11.48H137.14C137.23 11.48 137.27 11.48 137.27 11.6V13C137.27 13.08 137.27 13.12 137.14 13.12H135.75C135.66 13.14 135.62 13.1 135.62 13ZM135.71 19.93V14.03C135.71 13.94 135.71 13.91 135.83 13.91H137.06C137.14 13.91 137.18 13.91 137.18 14.03V20C137.18 20.09 137.18 20.12 137.06 20.12H135.83C135.75 20.07 135.71 20 135.71 20V19.93Z" fill="white"/>
<path d="M138.94 18.14V15.25H137.89C137.8 15.25 137.77 15.25 137.77 15.13V14.05C137.77 13.96 137.77 13.93 137.89 13.93H138.94V12.16C138.938 12.1438 138.941 12.1276 138.946 12.1123C138.951 12.097 138.96 12.0832 138.972 12.0717C138.983 12.0602 138.997 12.0514 139.012 12.046C139.028 12.0405 139.044 12.0384 139.06 12.04H140.29C140.306 12.0384 140.322 12.0405 140.338 12.046C140.353 12.0514 140.367 12.0602 140.378 12.0717C140.39 12.0832 140.399 12.097 140.404 12.1123C140.41 12.1276 140.412 12.1438 140.41 12.16V13.93H142.26C142.34 13.93 142.38 13.93 142.38 14.05V15.13C142.382 15.1461 142.38 15.1624 142.374 15.1777C142.369 15.1929 142.36 15.2068 142.348 15.2183C142.337 15.2297 142.323 15.2385 142.308 15.244C142.292 15.2495 142.276 15.2515 142.26 15.25H140.41V17.87C140.41 18.53 140.64 18.87 141.25 18.87C141.611 18.8832 141.971 18.8255 142.31 18.7H142.42C142.48 18.7 142.5 18.7 142.5 18.81V19.81C142.5 19.92 142.5 19.98 142.41 20.02C141.952 20.1536 141.477 20.2177 141 20.21C140.722 20.2347 140.443 20.198 140.181 20.1026C139.919 20.0071 139.682 19.8552 139.485 19.6577C139.288 19.4602 139.138 19.2218 139.043 18.9595C138.949 18.6972 138.914 18.4175 138.94 18.14Z" fill="white"/>
<path d="M143.05 22.42C143.012 22.4052 142.98 22.3788 142.959 22.3446C142.937 22.3105 142.927 22.2703 142.93 22.23V21.15C142.93 21.06 142.98 21.03 143.03 21.03C143.08 21.03 143.56 21.3 144.03 21.3C144.66 21.3 145.03 20.9 145.26 19.94L142.8 14.15C142.79 14.1072 142.79 14.0628 142.8 14.02C142.8 13.96 142.8 13.93 142.9 13.93H144.32C144.42 13.93 144.44 13.93 144.48 14.05L145.95 17.9L147.14 14.05C147.14 13.96 147.14 13.93 147.29 13.93H148.64C148.7 13.93 148.74 13.93 148.74 14.01C148.748 14.0563 148.748 14.1036 148.74 14.15L146.5 20.67C145.96 22.24 145.16 22.62 144.35 22.62C143.907 22.656 143.462 22.5875 143.05 22.42Z" fill="white"/>
<path d="M110.87 6.25001C110.987 6.44402 111.173 6.58685 111.39 6.65001C111.602 6.69638 111.823 6.66008 112.009 6.54855C112.195 6.43702 112.331 6.25868 112.39 6.05001C112.448 5.83445 112.42 5.60455 112.31 5.41001L110.4 2.11001C110.369 2.05981 110.324 2.01978 110.271 1.99488C110.218 1.96999 110.158 1.96134 110.1 1.97001C109.88 2.00405 109.669 2.08229 109.48 2.20001C109.282 2.30173 109.108 2.44499 108.97 2.62001C108.939 2.66944 108.922 2.72663 108.922 2.78501C108.922 2.84339 108.939 2.90059 108.97 2.95001L110.87 6.25001Z" fill="#FFB54D"/>
<path d="M109.13 8.62001C109.325 8.72973 109.554 8.75847 109.77 8.70001C109.877 8.67266 109.977 8.62401 110.065 8.557C110.152 8.48999 110.226 8.40598 110.28 8.31001C110.389 8.11594 110.418 7.88671 110.36 7.67164C110.302 7.45657 110.162 7.27285 109.97 7.16001L106.67 5.25001C106.621 5.21894 106.563 5.20245 106.505 5.20245C106.447 5.20245 106.389 5.21894 106.34 5.25001C106.165 5.3874 106.021 5.56145 105.92 5.76001C105.8 5.94887 105.718 6.15956 105.68 6.38001C105.676 6.4378 105.687 6.4957 105.711 6.5482C105.736 6.60071 105.773 6.64608 105.82 6.68001L109.13 8.62001Z" fill="#FFB54D"/>
<path d="M115.26 5.08C115.256 5.30458 115.167 5.51924 115.01 5.68C114.893 5.79996 114.742 5.88195 114.577 5.91539C114.413 5.94883 114.242 5.93218 114.087 5.8676C113.932 5.80302 113.8 5.69346 113.708 5.55307C113.615 5.41268 113.568 5.2479 113.57 5.08V1.27C113.572 1.21024 113.591 1.15233 113.625 1.10284C113.659 1.05334 113.705 1.01425 113.76 0.990003C113.968 0.915415 114.189 0.881468 114.41 0.890002C114.631 0.88045 114.852 0.914427 115.06 0.990003C115.117 1.0117 115.167 1.04987 115.202 1.09971C115.238 1.14954 115.258 1.2088 115.26 1.27V5.08Z" fill="#FFB54D"/>
<path d="M118 6.25001C117.946 6.34709 117.873 6.43235 117.786 6.50075C117.698 6.56914 117.598 6.61928 117.491 6.64819C117.383 6.67709 117.271 6.68419 117.161 6.66904C117.051 6.65389 116.945 6.61682 116.85 6.56001C116.754 6.50561 116.67 6.4324 116.603 6.34477C116.536 6.25713 116.487 6.15688 116.46 6.05001C116.402 5.83445 116.43 5.60455 116.54 5.41001L118.45 2.11001C118.481 2.05981 118.526 2.01978 118.579 1.99488C118.632 1.96999 118.692 1.96134 118.75 1.97001C119.189 2.05439 119.586 2.28322 119.88 2.62001C119.911 2.66944 119.928 2.72663 119.928 2.78501C119.928 2.84339 119.911 2.90059 119.88 2.95001L118 6.25001Z" fill="#FFB54D"/>
<path d="M119.7 8.62001C119.505 8.72973 119.276 8.75847 119.06 8.70001C118.953 8.67375 118.852 8.62554 118.764 8.55842C118.676 8.4913 118.603 8.40672 118.55 8.31001C118.493 8.21457 118.456 8.1087 118.441 7.99868C118.426 7.88865 118.433 7.7767 118.462 7.66946C118.491 7.56222 118.541 7.46188 118.609 7.37437C118.678 7.28686 118.763 7.21397 118.86 7.16001L122.16 5.25001C122.209 5.21894 122.267 5.20245 122.325 5.20245C122.383 5.20245 122.441 5.21894 122.49 5.25001C122.827 5.54352 123.056 5.94132 123.14 6.38001C123.149 6.43824 123.14 6.49773 123.115 6.55107C123.09 6.60442 123.05 6.64926 123 6.68001L119.7 8.62001Z" fill="#FFB54D"/>
</svg>
